<svg width="15" height="15" viewBox="0 0 20 20" fill="none" xmlns="http://www.w3.org/2000/svg">
<path d="M10.8333 2.50008C10.8333 2.03985 10.4602 1.66675 9.99999 1.66675C9.53974 1.66675 9.16666 2.03985 9.16666 2.50008V9.16675H2.49999C2.03976 9.16675 1.66666 9.53983 1.66666 10.0001C1.66666 10.4603 2.03976 10.8334 2.49999 10.8334H9.16666V17.5001C9.16666 17.9603 9.53974 18.3334 9.99999 18.3334C10.4602 18.3334 10.8333 17.9603 10.8333 17.5001V10.8334H17.5C17.9602 10.8334 18.3333 10.4603 18.3333 10.0001C18.3333 9.53983 17.9602 9.16675 17.5 9.16675H10.8333V2.50008Z" fill="#7B1C24"/>
</svg>
